<?xml version="1.0" encoding="UTF-8"?>
<svg id="uuid-65ea73ae-943c-4355-9420-13a51e05885a" data-name="图层 1" xmlns="http://www.w3.org/2000/svg" viewBox="0 0 2511.58 434.4">
  <defs>
    <style>
      .uuid-f2e8326f-0c35-4895-9f02-133d6c521f20 {
        stroke-width: 0px;
      }
    </style>
  </defs>
  <path class="uuid-f2e8326f-0c35-4895-9f02-133d6c521f20" d="m302.1,360c-8.2,16-19.41,29.5-33.6,40.5-14.2,11.01-30.9,19.41-50.1,25.2-19.2,5.79-40,8.7-62.4,8.7-32.4,0-61.3-4.1-86.7-12.3-25.41-8.19-48.51-22.89-69.3-44.1l54-54c13.59,13.6,29.19,23.01,46.8,28.2,17.6,5.2,36.39,7.8,56.4,7.8,24.8,0,43.59-4.5,56.4-13.5,12.8-9,19.2-22.1,19.2-39.3,0-15.6-4.41-27.6-13.2-36-4.41-3.99-9.3-7.1-14.7-9.3-5.4-2.19-13.11-4.1-23.1-5.7l-51.6-7.2c-36.4-5.19-64-17-82.8-35.4-20.4-20.4-30.6-48.39-30.6-84,0-19.2,3.39-36.69,10.2-52.5,6.8-15.8,16.59-29.4,29.4-40.8,12.8-11.4,28.4-20.3,46.8-26.7C121.59,3.21,142.4,0,165.6,0c29.6,0,55.4,3.81,77.4,11.4,21.99,7.6,42.2,20.4,60.6,38.4l-52.8,52.2c-13.6-12.8-28.11-20.9-43.5-24.3-15.4-3.39-30.1-5.1-44.1-5.1-22.41,0-39,5.31-49.8,15.9-10.8,10.6-16.2,23.31-16.2,38.1,0,5.61.99,11.01,3,16.2,2,5.2,5.19,10,9.6,14.4,4.4,4,9.9,7.5,16.5,10.5,6.6,3,14.3,5.1,23.1,6.3l50.4,7.2c19.59,2.8,35.79,6.9,48.6,12.3,12.8,5.4,23.79,12.3,33,20.7,11.6,10.8,20,23.8,25.2,39,5.19,15.21,7.8,32.4,7.8,51.6,0,20.8-4.11,39.21-12.3,55.2Z"/>
  <path class="uuid-f2e8326f-0c35-4895-9f02-133d6c521f20" d="m556.19,78v352.8h-83.4V78h-111.6V3.6h306.6v74.4h-111.6Z"/>
  <polyline class="uuid-f2e8326f-0c35-4895-9f02-133d6c521f20" points="735.59 178.2 735.59 430.8 1016.99 430.8 1016.99 356.4 818.99 356.4 818.99 252.6 987.59 252.6 987.59 178.2 818.99 178.2"/>
  <polyline class="uuid-f2e8326f-0c35-4895-9f02-133d6c521f20" points="1016.99 78 1016.99 3.6 735.59 3.6 735.59 78"/>
  <path class="uuid-f2e8326f-0c35-4895-9f02-133d6c521f20" d="m1379.09,358.2c-9.4,16.8-21,30.9-34.8,42.3-13.8,11.4-29.5,19.9-47.1,25.5-17.61,5.6-36.21,8.4-55.8,8.4-23.61,0-44.91-3.99-63.9-12-19-8-36.1-19.59-51.3-34.8-10.8-10.8-19.11-22.29-24.9-34.5-5.8-12.2-9.9-25.29-12.3-39.3-2.4-14-3.81-29-4.2-45-.4-15.99-.6-33.2-.6-51.6s.2-35.6.6-51.6c.39-15.99,1.8-30.99,4.2-45,2.4-14,6.5-27.09,12.3-39.3,5.79-12.2,14.1-23.7,24.9-34.5,15.2-15.2,32.3-26.79,51.3-34.8,18.99-8,40.29-12,63.9-12,20,0,38.7,2.8,56.1,8.4,17.4,5.61,33,14.1,46.8,25.5,13.8,11.4,25.4,25.5,34.8,42.3,9.39,16.8,15.9,36.4,19.5,58.8h-84.6c-4.41-17.19-12.21-31.59-23.4-43.2-11.2-11.6-27.4-17.4-48.6-17.4-11.61,0-21.9,2.01-30.9,6-9,4-16.5,9.4-22.5,16.2-4,4.41-7.41,9.3-10.2,14.7-2.8,5.4-5.01,12.51-6.6,21.3-1.6,8.8-2.7,20.01-3.3,33.6-.6,13.6-.9,30.6-.9,51s.3,37.41.9,51c.6,13.6,1.7,24.81,3.3,33.6,1.59,8.8,3.8,15.9,6.6,21.3,2.79,5.4,6.2,10.3,10.2,14.7,6,6.81,13.5,12.21,22.5,16.2,9,4,19.29,6,30.9,6,21.2,0,37.4-5.79,48.6-17.4,11.19-11.6,18.99-26,23.4-43.2h84.6c-3.6,22.41-10.11,42-19.5,58.8Z"/>
  <path class="uuid-f2e8326f-0c35-4895-9f02-133d6c521f20" d="m1707.59,430.8l-25.2-75.6h-151.8l-25.8,75.6h-87L1573.19,3.6h65.4l156,427.2h-87Zm-99.6-301.2l-54,155.4h106.2l-52.2-155.4Z"/>
  <path class="uuid-f2e8326f-0c35-4895-9f02-133d6c521f20" d="m2136.28,332.1c-6.21,20.2-16.71,38.1-31.5,53.7-17.2,18-35.91,30.6-56.1,37.8-20.2,7.2-41.7,10.8-64.5,10.8s-44.91-3.99-63.9-12c-19-8-36.1-19.59-51.3-34.8-10.8-10.8-19.11-22.29-24.9-34.5-5.8-12.2-9.9-25.29-12.3-39.3-2.4-14-3.81-29-4.2-45-.4-15.99-.6-33.2-.6-51.6s.2-35.6.6-51.6c.39-15.99,1.8-30.99,4.2-45,2.4-14,6.5-27.09,12.3-39.3,5.79-12.2,14.1-23.7,24.9-34.5,15.2-15.2,32.19-26.79,51-34.8,18.8-8,40.2-12,64.2-12s46.59,3.81,65.4,11.4c18.8,7.6,34.8,17.7,48,30.3,13.2,12.6,23.7,27.1,31.5,43.5,7.8,16.41,13.1,33.6,15.9,51.6h-84c-4.8-20.4-13.41-35.9-25.8-46.5-12.4-10.59-29.4-15.9-51-15.9-11.61,0-21.9,2.1-30.9,6.3-9,4.2-16.5,9.7-22.5,16.5-4,4.41-7.3,9.3-9.9,14.7-2.61,5.4-4.71,12.51-6.3,21.3-1.6,8.8-2.7,19.9-3.3,33.3-.6,13.41-.9,30.3-.9,50.7s.3,37.41.9,51c.6,13.6,1.7,24.81,3.3,33.6,1.59,8.8,3.69,15.9,6.3,21.3,2.6,5.4,5.9,10.3,9.9,14.7,6,6.81,13.5,12.21,22.5,16.2,9,4,19.29,6,30.9,6,12.8,0,24.2-2.1,34.2-6.3,9.99-4.2,18.39-10.1,25.2-17.7,6.8-8,11.7-16.7,14.7-26.1,3-9.39,4.5-19.7,4.5-30.9v-16.2h-78.6v-69.6h161.4v62.4c0,30.81-3.1,56.31-9.3,76.5Z"/>
  <path class="uuid-f2e8326f-0c35-4895-9f02-133d6c521f20" d="m2230.18,430.8V3.6h281.4v74.4h-198v100.2h168.6v74.4h-168.6v103.8h198v74.4h-281.4Z"/>
</svg>