<?xml version="1.0" encoding="UTF-8"?><svg id="uuid-11d2674e-87bf-42b1-8493-4db59949b14e" height="12.2" viewBox="0 0 70.6 12.2" width="70.6" xmlns="http://www.w3.org/2000/svg"><defs><style>.uuid-f1777af9-2cae-4a71-a1c0-bca158aab271{fill:#110e38;stroke-width:0px;}</style></defs><path class="uuid-f1777af9-2cae-4a71-a1c0-bca158aab271" d="m8.5,10.1c-.2.4-.5.8-.9,1.1-.4.3-.9.5-1.4.7-.5.2-1.1.2-1.8.2-.9,0-1.7-.1-2.4-.3-.7-.2-1.4-.6-1.9-1.2l1.5-1.5c.4.4.8.6,1.3.8.5.1,1,.2,1.6.2s1.2-.1,1.6-.4c.4-.3.5-.6.5-1.1s-.1-.8-.4-1c-.1-.1-.3-.2-.4-.3-.2,0-.4-.1-.6-.2l-1.4-.2c-1-.1-1.8-.5-2.3-1-.6-.6-.9-1.4-.9-2.4s0-1,.3-1.5c.2-.4.5-.8.8-1.1.4-.3.8-.6,1.3-.8.5-.2,1.1-.3,1.8-.3s1.6.1,2.2.3c.6.2,1.2.6,1.7,1.1l-1.5,1.5c-.4-.4-.8-.6-1.2-.7-.4,0-.8-.1-1.2-.1-.6,0-1.1.1-1.4.4-.3.3-.5.7-.5,1.1s0,.3,0,.5c0,.1.1.3.3.4.1.1.3.2.5.3.2,0,.4.1.6.2l1.4.2c.6,0,1,.2,1.4.3.4.2.7.3.9.6.3.3.6.7.7,1.1.1.4.2.9.2,1.4s-.1,1.1-.3,1.6Z"/><path class="uuid-f1777af9-2cae-4a71-a1c0-bca158aab271" d="m15.6,2.2v9.9h-2.3V2.2h-3.1V.1h8.6v2.1h-3.1Z"/><polyline class="uuid-f1777af9-2cae-4a71-a1c0-bca158aab271" points="20.7 5 20.7 12.1 28.6 12.1 28.6 10 23 10 23 7.1 27.7 7.1 27.7 5 23 5"/><polyline class="uuid-f1777af9-2cae-4a71-a1c0-bca158aab271" points="28.6 2.2 28.6 .1 20.7 .1 20.7 2.2"/><path class="uuid-f1777af9-2cae-4a71-a1c0-bca158aab271" d="m38.7,10.1c-.3.5-.6.9-1,1.2-.4.3-.8.6-1.3.7-.5.2-1,.2-1.6.2s-1.3-.1-1.8-.3c-.5-.2-1-.6-1.4-1-.3-.3-.5-.6-.7-1-.2-.3-.3-.7-.3-1.1,0-.4-.1-.8-.1-1.3,0-.4,0-.9,0-1.4s0-1,0-1.4c0-.4,0-.9.1-1.3,0-.4.2-.8.3-1.1.2-.3.4-.7.7-1,.4-.4.9-.8,1.4-1,.5-.2,1.1-.3,1.8-.3s1.1,0,1.6.2c.5.2.9.4,1.3.7.4.3.7.7,1,1.2.3.5.4,1,.5,1.7h-2.4c-.1-.5-.3-.9-.7-1.2-.3-.3-.8-.5-1.4-.5s-.6,0-.9.2c-.3.1-.5.3-.6.5-.1.1-.2.3-.3.4,0,.2-.1.4-.2.6,0,.2,0,.6,0,.9,0,.4,0,.9,0,1.4s0,1.1,0,1.4c0,.4,0,.7,0,.9,0,.2.1.4.2.6,0,.2.2.3.3.4.2.2.4.3.6.5.3.1.5.2.9.2.6,0,1.1-.2,1.4-.5.3-.3.5-.7.7-1.2h2.4c-.1.6-.3,1.2-.5,1.7Z"/><path class="uuid-f1777af9-2cae-4a71-a1c0-bca158aab271" d="m48,12.1l-.7-2.1h-4.3l-.7,2.1h-2.4L44.2.1h1.8l4.4,12h-2.4Zm-2.8-8.5l-1.5,4.4h3l-1.5-4.4Z"/><path class="uuid-f1777af9-2cae-4a71-a1c0-bca158aab271" d="m60,9.3c-.2.6-.5,1.1-.9,1.5-.5.5-1,.9-1.6,1.1-.6.2-1.2.3-1.8.3s-1.3-.1-1.8-.3c-.5-.2-1-.6-1.4-1-.3-.3-.5-.6-.7-1-.2-.3-.3-.7-.3-1.1,0-.4-.1-.8-.1-1.3,0-.4,0-.9,0-1.4s0-1,0-1.4c0-.4,0-.9.1-1.3,0-.4.2-.8.3-1.1.2-.3.4-.7.7-1,.4-.4.9-.8,1.4-1,.5-.2,1.1-.3,1.8-.3s1.3.1,1.8.3c.5.2,1,.5,1.3.9.4.4.7.8.9,1.2.2.5.4.9.4,1.4h-2.4c-.1-.6-.4-1-.7-1.3-.3-.3-.8-.4-1.4-.4s-.6,0-.9.2c-.3.1-.5.3-.6.5-.1.1-.2.3-.3.4,0,.2-.1.4-.2.6,0,.2,0,.6,0,.9,0,.4,0,.9,0,1.4s0,1.1,0,1.4c0,.4,0,.7,0,.9,0,.2.1.4.2.6,0,.2.2.3.3.4.2.2.4.3.6.5.3.1.5.2.9.2s.7,0,1-.2c.3-.1.5-.3.7-.5.2-.2.3-.5.4-.7,0-.3.1-.6.1-.9v-.5h-2.2v-2h4.5v1.8c0,.9,0,1.6-.3,2.1Z"/><path class="uuid-f1777af9-2cae-4a71-a1c0-bca158aab271" d="m62.7,12.1V.1h7.9v2.1h-5.6v2.8h4.7v2.1h-4.7v2.9h5.6v2.1h-7.9Z"/></svg>