<?xml version="1.0" encoding="utf-8"?>
<!-- Generator: Adobe Illustrator 28.0.0, SVG Export Plug-In . SVG Version: 6.00 Build 0)  -->
<svg version="1.1" id="uuid-11d2674e-87bf-42b1-8493-4db59949b14e"
	 xmlns="http://www.w3.org/2000/svg" xmlns:xlink="http://www.w3.org/1999/xlink" x="0px" y="0px" height="30" viewBox="0 0 75 15" width="150" 
	 style="enable-background:new 0 0 75 15;" xml:space="preserve">
<style type="text/css">
	.st0{fill:#E0E0E0;}
</style>
<path class="st0" d="M9,11.9c-0.2,0.4-0.5,0.8-1,1.2c-0.4,0.3-1,0.5-1.5,0.7C6,14,5.4,14,4.6,14c-1,0-1.8-0.1-2.5-0.3S0.6,13,0,12.4
	l1.6-1.6c0.4,0.4,0.8,0.6,1.4,0.8c0.5,0.1,1.1,0.2,1.7,0.2s1.3-0.1,1.7-0.4C6.8,11.1,7,10.8,7,10.3S6.8,9.4,6.5,9.2
	C6.4,9.1,6.2,9,6.1,8.9c-0.2,0-0.4-0.1-0.6-0.2L4,8.5C2.9,8.4,2.1,7.9,1.5,7.4c-0.6-0.6-1-1.5-1-2.5s0-1.1,0.3-1.6
	c0.2-0.4,0.5-0.8,0.8-1.2c0.4-0.3,0.8-0.6,1.4-0.8S4.3,0.9,5,0.9S6.7,1,7.4,1.2s1.3,0.6,1.8,1.2L7.6,4C7.2,3.6,6.7,3.4,6.3,3.3
	C5.9,3.3,5.5,3.2,5,3.2c-0.6,0-1.2,0.1-1.5,0.4S3,4.3,3,4.7c0,0.4,0,0.3,0,0.5c0,0.1,0.1,0.3,0.3,0.4C3.4,5.8,3.7,5.9,3.9,6
	c0.2,0,0.4,0.1,0.6,0.2L6,6.4c0.6,0,1.1,0.2,1.5,0.3c0.4,0.2,0.7,0.3,1,0.6c0.3,0.3,0.6,0.7,0.7,1.2c0.1,0.4,0.2,1,0.2,1.5
	c0,0.5-0.1,1.2-0.3,1.7L9,11.9z"/>
<path class="st0" d="M16.5,3.5V14h-2.4V3.5h-3.3V1.2h9.1v2.2h-3.3L16.5,3.5z"/>
<polyline class="st0" points="21.9,6.4 21.9,14 30.3,14 30.3,11.8 24.4,11.8 24.4,8.7 29.4,8.7 29.4,6.4 24.4,6.4 "/>
<polyline class="st0" points="30.3,3.5 30.3,1.2 21.9,1.2 21.9,3.5 "/>
<path class="st0" d="M41.1,11.9c-0.3,0.5-0.6,1-1.1,1.3c-0.4,0.3-0.8,0.6-1.4,0.7c-0.5,0.2-1.1,0.2-1.7,0.2S35.5,14,35,13.8
	c-0.5-0.2-1.1-0.6-1.5-1.1c-0.3-0.3-0.5-0.6-0.7-1.1c-0.2-0.3-0.3-0.7-0.3-1.2s-0.1-0.8-0.1-1.4c0-0.4,0-1,0-1.5s0-1.1,0-1.5
	c0-0.4,0-1,0.1-1.4c0-0.4,0.2-0.8,0.3-1.2c0.2-0.3,0.4-0.7,0.7-1.1c0.4-0.4,1-0.8,1.5-1.1c0.5-0.2,1.2-0.3,1.9-0.3s1.2,0,1.7,0.2
	s1,0.4,1.4,0.7s0.7,0.7,1.1,1.3s0.4,1.1,0.5,1.8H39c-0.1-0.5-0.3-1-0.7-1.3c-0.3-0.3-0.8-0.5-1.5-0.5s-0.6,0-1,0.2
	c-0.3,0.1-0.5,0.3-0.6,0.5c-0.1,0.1-0.2,0.3-0.3,0.4c0,0.2-0.1,0.4-0.2,0.6c0,0.2,0,0.6,0,1c0,0.4,0,1,0,1.5s0,1.2,0,1.5
	c0,0.4,0,0.7,0,1c0,0.2,0.1,0.4,0.2,0.6c0,0.2,0.2,0.3,0.3,0.4c0.2,0.2,0.4,0.3,0.6,0.5c0.3,0.1,0.5,0.2,1,0.2
	c0.6,0,1.2-0.2,1.5-0.5c0.3-0.3,0.5-0.7,0.7-1.3h2.5C41.5,10.7,41.3,11.3,41.1,11.9z"/>
<path class="st0" d="M50.9,14l-0.7-2.2h-4.6L44.9,14h-2.5l4.6-12.7h1.9L53.5,14H50.9z M48,5l-1.6,4.7h3.2C49.6,9.6,48,5,48,5z"/>
<path class="st0" d="M63.7,11c-0.2,0.6-0.5,1.2-1,1.6c-0.5,0.5-1.1,1-1.7,1.2c-0.6,0.2-1.3,0.3-1.9,0.3c-0.6,0-1.4-0.1-1.9-0.3
	c-0.5-0.2-1.1-0.6-1.5-1.1c-0.3-0.3-0.5-0.6-0.7-1.1c-0.2-0.3-0.3-0.7-0.3-1.2c0-0.4-0.1-0.8-0.1-1.4c0-0.4,0-1,0-1.5s0-1.1,0-1.5
	c0-0.4,0-1,0.1-1.4c0-0.4,0.2-0.8,0.3-1.2c0.2-0.3,0.4-0.7,0.7-1.1c0.4-0.4,1-0.8,1.5-1.1s1.2-0.3,1.9-0.3c0.7,0,1.4,0.1,1.9,0.3
	s1.1,0.5,1.4,1c0.4,0.4,0.7,0.8,1,1.3c0.2,0.5,0.4,1,0.4,1.5h-2.5c-0.1-0.6-0.4-1.1-0.7-1.4S59.7,3.4,59,3.4s-0.6,0-1,0.2
	c-0.3,0.1-0.5,0.3-0.6,0.5c-0.1,0.1-0.2,0.3-0.3,0.4c0,0.2-0.1,0.4-0.2,0.6c0,0.2,0,0.6,0,1c0,0.4,0,1,0,1.5s0,1.2,0,1.5
	c0,0.4,0,0.7,0,1c0,0.2,0.1,0.4,0.2,0.6c0,0.2,0.2,0.3,0.3,0.4c0.2,0.2,0.4,0.3,0.6,0.5c0.3,0.1,0.5,0.2,1,0.2c0.4,0,0.7,0,1.1-0.2
	c0.3-0.1,0.5-0.3,0.7-0.5c0.2-0.2,0.3-0.5,0.4-0.7c0-0.3,0.1-0.6,0.1-1V8.9H59V6.8h4.8v1.9c0,1,0,1.7-0.3,2.2L63.7,11z"/>
<path class="st0" d="M66.6,14V1.2H75v2.2H69v3h5v2.2h-5v3.1H75V14C75,14,66.6,14,66.6,14z"/>
</svg>
