<?xml version="1.0" encoding="utf-8"?>
<!-- Generator: Adobe Illustrator 28.0.0, SVG Export Plug-In . SVG Version: 6.00 Build 0)  -->
<svg version="1.1" id="图层_1" xmlns="http://www.w3.org/2000/svg" xmlns:xlink="http://www.w3.org/1999/xlink" x="0px" y="0px"
	 viewBox="0 0 72 17" style="enable-background:new 0 0 72 17;" xml:space="preserve">
<path d="M8.6,12.3c-0.2,0.5-0.6,0.8-1,1.2c-0.4,0.3-0.9,0.6-1.4,0.7s-1.1,0.2-1.8,0.2c-0.9,0-1.8-0.1-2.5-0.4
	c-0.7-0.2-1.4-0.7-2-1.3l1.5-1.5c0.4,0.4,0.8,0.7,1.3,0.8c0.5,0.1,1,0.2,1.6,0.2c0.7,0,1.2-0.1,1.6-0.4c0.4-0.3,0.5-0.6,0.5-1.1
	c0-0.4-0.1-0.8-0.4-1C6.1,9.6,6,9.6,5.9,9.5C5.7,9.4,5.5,9.4,5.2,9.3L3.7,9.1c-1-0.1-1.8-0.5-2.4-1C0.8,7.5,0.5,6.7,0.5,5.7
	c0-0.5,0.1-1,0.3-1.5C1,3.8,1.2,3.4,1.6,3C2,2.7,2.4,2.5,2.9,2.3C3.5,2.1,4.1,2,4.7,2c0.8,0,1.6,0.1,2.2,0.3
	c0.6,0.2,1.2,0.6,1.7,1.1L7.2,4.9C6.8,4.6,6.4,4.3,5.9,4.2C5.5,4.1,5.1,4.1,4.7,4.1C4,4.1,3.5,4.2,3.2,4.5C2.9,4.8,2.8,5.2,2.8,5.6
	c0,0.2,0,0.3,0.1,0.5C2.9,6.2,3,6.4,3.1,6.5c0.1,0.1,0.3,0.2,0.5,0.3C3.8,6.9,4,6.9,4.3,7l1.4,0.2c0.6,0.1,1,0.2,1.4,0.4
	C7.5,7.7,7.8,7.9,8,8.1c0.3,0.3,0.6,0.7,0.7,1.1C8.9,9.7,9,10.2,9,10.7C9,11.3,8.9,11.8,8.6,12.3L8.6,12.3z"/>
<path d="M15.9,4.2v10.1h-2.4V4.2h-3.2V2.1h8.8v2.1H15.9L15.9,4.2z"/>
<polyline points="21,7.1 21,14.3 29.1,14.3 29.1,12.2 23.4,12.2 23.4,9.2 28.2,9.2 28.2,7.1 23.4,7.1 "/>
<polyline points="29.1,4.2 29.1,2.1 21,2.1 21,4.2 "/>
<path d="M39.4,12.2c-0.3,0.5-0.6,0.9-1,1.2s-0.8,0.6-1.3,0.7c-0.5,0.2-1,0.2-1.6,0.2c-0.7,0-1.3-0.1-1.8-0.3c-0.5-0.2-1-0.6-1.5-1
	c-0.3-0.3-0.5-0.6-0.7-1c-0.2-0.3-0.3-0.7-0.4-1.1c-0.1-0.4-0.1-0.8-0.1-1.3c0-0.5,0-0.9,0-1.5s0-1,0-1.5c0-0.5,0.1-0.9,0.1-1.3
	c0.1-0.4,0.2-0.8,0.4-1.1c0.2-0.3,0.4-0.7,0.7-1c0.4-0.4,0.9-0.8,1.5-1C34.2,2.1,34.8,2,35.5,2c0.6,0,1.1,0.1,1.6,0.2
	C37.6,2.4,38,2.6,38.4,3s0.7,0.7,1,1.2c0.3,0.5,0.5,1,0.6,1.7h-2.4c-0.1-0.5-0.3-0.9-0.7-1.2c-0.3-0.3-0.8-0.5-1.4-0.5
	c-0.3,0-0.6,0.1-0.9,0.2c-0.3,0.1-0.5,0.3-0.6,0.5c-0.1,0.1-0.2,0.3-0.3,0.4c-0.1,0.2-0.1,0.4-0.2,0.6c0,0.3-0.1,0.6-0.1,1
	c0,0.4,0,0.9,0,1.5s0,1.1,0,1.5c0,0.4,0,0.7,0.1,1c0,0.3,0.1,0.5,0.2,0.6c0.1,0.2,0.2,0.3,0.3,0.4c0.2,0.2,0.4,0.3,0.6,0.5
	c0.3,0.1,0.6,0.2,0.9,0.2c0.6,0,1.1-0.2,1.4-0.5c0.3-0.3,0.5-0.7,0.7-1.2H40C39.9,11.2,39.7,11.8,39.4,12.2z"/>
<path d="M48.8,14.3l-0.7-2.2h-4.3L43,14.3h-2.5L45,2.1h1.9l4.5,12.2L48.8,14.3L48.8,14.3z M46,5.7l-1.5,4.4h3L46,5.7z"/>
<path d="M61,11.5c-0.2,0.6-0.5,1.1-0.9,1.5c-0.5,0.5-1,0.9-1.6,1.1c-0.6,0.2-1.2,0.3-1.8,0.3s-1.3-0.1-1.8-0.3c-0.5-0.2-1-0.6-1.5-1
	c-0.3-0.3-0.5-0.6-0.7-1c-0.2-0.3-0.3-0.7-0.4-1.1c-0.1-0.4-0.1-0.8-0.1-1.3c0-0.5,0-0.9,0-1.5s0-1,0-1.5c0-0.5,0.1-0.9,0.1-1.3
	c0.1-0.4,0.2-0.8,0.4-1.1c0.2-0.3,0.4-0.7,0.7-1c0.4-0.4,0.9-0.8,1.5-1C55.4,2.1,56,2,56.7,2c0.7,0,1.3,0.1,1.9,0.3
	c0.5,0.2,1,0.5,1.4,0.9c0.4,0.4,0.7,0.8,0.9,1.2c0.2,0.5,0.4,1,0.5,1.5h-2.4c-0.1-0.6-0.4-1-0.7-1.3c-0.4-0.3-0.8-0.5-1.5-0.5
	c-0.3,0-0.6,0.1-0.9,0.2c-0.3,0.1-0.5,0.3-0.6,0.5C55.1,4.9,55,5,54.9,5.2c-0.1,0.2-0.1,0.4-0.2,0.6c0,0.3-0.1,0.6-0.1,1
	c0,0.4,0,0.9,0,1.4s0,1.1,0,1.5c0,0.4,0,0.7,0.1,1c0,0.3,0.1,0.5,0.2,0.6c0.1,0.2,0.2,0.3,0.3,0.4c0.2,0.2,0.4,0.3,0.6,0.5
	c0.3,0.1,0.6,0.2,0.9,0.2c0.4,0,0.7-0.1,1-0.2c0.3-0.1,0.5-0.3,0.7-0.5c0.2-0.2,0.3-0.5,0.4-0.7c0.1-0.3,0.1-0.6,0.1-0.9V9.5h-2.2
	v-2h4.6v1.8C61.3,10.2,61.2,10.9,61,11.5L61,11.5z"/>
<path d="M63.7,14.3V2.1h8v2.1h-5.7v2.9h4.8v2.1h-4.8v3h5.7v2.1L63.7,14.3L63.7,14.3z"/>
</svg>
